<?xml version="1.0" encoding="UTF-8" standalone="no"?>
<!-- Created with Inkscape (http://www.inkscape.org/) -->

<svg
   xmlns:dc="http://purl.org/dc/elements/1.1/"
   xmlns:cc="http://creativecommons.org/ns#"
   xmlns:rdf="http://www.w3.org/1999/02/22-rdf-syntax-ns#"
   xmlns:svg="http://www.w3.org/2000/svg"
   xmlns="http://www.w3.org/2000/svg"
   xmlns:sodipodi="http://sodipodi.sourceforge.net/DTD/sodipodi-0.dtd"
   xmlns:inkscape="http://www.inkscape.org/namespaces/inkscape"
   version="1.1"
   id="svg10"
   xml:space="preserve"
   width="359.573"
   height="359.57101"
   viewBox="0 0 359.573 359.57102"
   sodipodi:docname="logo3.svg"
   inkscape:version="0.92.4 (5da689c313, 2019-01-14)"><metadata
     id="metadata16"><rdf:RDF><cc:Work
         rdf:about=""><dc:format>image/svg+xml</dc:format><dc:type
           rdf:resource="http://purl.org/dc/dcmitype/StillImage" /><dc:title></dc:title></cc:Work></rdf:RDF></metadata><defs
     id="defs14"><radialGradient
       fx="0"
       fy="0"
       cx="0"
       cy="0"
       r="1"
       gradientUnits="userSpaceOnUse"
       gradientTransform="matrix(345.5907,0,0,-345.5907,253.67522,250)"
       spreadMethod="pad"
       id="radialGradient36"><stop
         style="stop-opacity:1;stop-color:#ffffff"
         offset="0"
         id="stop32" /><stop
         style="stop-opacity:1;stop-color:#ecf0ef"
         offset="1"
         id="stop34" /></radialGradient><clipPath
       clipPathUnits="userSpaceOnUse"
       id="clipPath54"><path
         d="M 0,500 H 500 V 0 H 0 Z"
         id="path52"
         inkscape:connector-curvature="0" /></clipPath><clipPath
       clipPathUnits="userSpaceOnUse"
       id="clipPath118"><path
         d="M 0,500 H 500 V 0 H 0 Z"
         id="path116"
         inkscape:connector-curvature="0" /></clipPath></defs><sodipodi:namedview
     pagecolor="#ffffff"
     bordercolor="#666666"
     borderopacity="1"
     objecttolerance="10"
     gridtolerance="10"
     guidetolerance="10"
     inkscape:pageopacity="0"
     inkscape:pageshadow="2"
     inkscape:window-width="1680"
     inkscape:window-height="987"
     id="namedview12"
     showgrid="false"
     inkscape:zoom="1.185"
     inkscape:cx="249.2346"
     inkscape:cy="238.6447"
     inkscape:window-x="-8"
     inkscape:window-y="-8"
     inkscape:window-maximized="1"
     inkscape:current-layer="g18" /><g
     id="g18"
     inkscape:groupmode="layer"
     inkscape:label="378717-PCF5DM-658"
     transform="matrix(1.3333333,0,0,-1.3333333,-157.93189,536.59671)">

<g
   id="g48"
   transform="matrix(1.6679537,0,0,1.6679537,-163.76034,-236.09067)"><g
     id="g50"
     clip-path="url(#clipPath54)"><g
       id="g56"
       transform="translate(328.8779,301.9863)"
       style="fill:#4871c8;fill-opacity:1"><path
         d="m 0,0 c 0,43.543 -35.299,78.841 -78.841,78.841 -43.543,0 -78.842,-35.298 -78.842,-78.841 0,-43.543 35.299,-78.841 78.842,-78.841 C -35.299,-78.841 0,-43.543 0,0"
         style="fill:#4871c8;fill-opacity:1;fill-rule:nonzero;stroke:none"
         id="path58"
         inkscape:connector-curvature="0" /></g><g
       id="g60"
       transform="translate(214.5776,231.5547)"
       style="fill:#a6c6ea;fill-opacity:1"><path
         d="M 0,0 C 27.614,49.407 10.23,83.046 10.23,83.046 -10.491,81.565 -26.562,67.278 -26.562,67.278 -0.282,43.1 -10.13,6.101 -10.13,6.101 -10.13,6.101 -2.871,1.052 0,0"
         style="fill:#a6c6ea;fill-opacity:1;fill-rule:nonzero;stroke:none"
         id="path62"
         inkscape:connector-curvature="0" /></g><g
       id="g64"
       transform="translate(214.5776,231.5547)"><path
         d="M 0,0 C 27.614,49.407 10.23,83.046 10.23,83.046 -10.491,81.565 -26.562,67.278 -26.562,67.278 -0.282,43.1 -10.13,6.101 -10.13,6.101 -10.13,6.101 -2.871,1.052 0,0 Z"
         style="fill:none;stroke:#7ba9df;stroke-width:4;stroke-linecap:butt;stroke-linejoin:miter;stroke-miterlimit:10;stroke-dasharray:none;stroke-opacity:0.99607843"
         id="path66"
         inkscape:connector-curvature="0" /></g><g
       id="g68"
       transform="translate(268.876,334.3062)"
       style="fill:#cadcf3;fill-opacity:1"><path
         d="m 0,0 c -24.26,7.091 -48.273,-2.886 -48.273,-2.886 19.973,-66.226 -6.025,-99.865 -6.025,-99.865 0,0 15.485,-8.41 38.612,-8.41 0,0 34.526,81.459 15.686,111.161"
         style="fill:#cadcf3;fill-opacity:1;fill-rule:nonzero;stroke:none"
         id="path70"
         inkscape:connector-curvature="0" /></g><g
       id="g72"
       transform="translate(268.876,334.3062)"><path
         d="m 0,0 c -24.26,7.091 -48.273,-2.886 -48.273,-2.886 19.973,-66.226 -6.025,-99.865 -6.025,-99.865 0,0 15.485,-8.41 38.612,-8.41 0,0 34.526,81.459 15.686,111.161 z"
         style="fill:none;stroke:#7ba9df;stroke-width:4;stroke-linecap:butt;stroke-linejoin:miter;stroke-miterlimit:10;stroke-dasharray:none;stroke-opacity:0.99607843"
         id="path74"
         inkscape:connector-curvature="0" /></g><g
       id="g76"
       transform="translate(323.457,330.769)"
       style="fill:#e1ebf8;fill-opacity:1"><path
         d="m 0,0 c -21.911,27.983 -58.703,24.83 -58.703,24.83 19.973,-97.764 -41.024,-127.953 -41.024,-127.953 0,0 36.819,-13.961 68.568,7.774 0,0 53.399,33.979 31.159,95.349"
         style="fill:#e1ebf8;fill-opacity:1;fill-rule:nonzero;stroke:none"
         id="path78"
         inkscape:connector-curvature="0" /></g><g
       id="g80"
       transform="translate(323.457,330.769)"><path
         d="m 0,0 c -21.911,27.983 -58.703,24.83 -58.703,24.83 19.973,-97.764 -41.024,-127.953 -41.024,-127.953 0,0 36.819,-13.961 68.568,7.774 0,0 53.399,33.979 31.159,95.349 z"
         style="fill:none;stroke:#7ba9df;stroke-width:4;stroke-linecap:butt;stroke-linejoin:miter;stroke-miterlimit:10;stroke-dasharray:none;stroke-opacity:0.99607843"
         id="path82"
         inkscape:connector-curvature="0" /></g><g
       id="g84"
       transform="translate(328.8779,301.9863)"
       style="fill:#7ba9df;fill-opacity:0;stroke:#7ba9df;stroke-opacity:0.9959183"><path
         d="m 0,0 c 0,43.543 -35.299,78.841 -78.841,78.841 -43.543,0 -78.842,-35.298 -78.842,-78.841 0,-43.543 35.299,-78.841 78.842,-78.841 C -35.299,-78.841 0,-43.543 0,0 Z"
         style="fill:#7ba9df;fill-opacity:0;stroke:#7ba9df;stroke-width:4;stroke-linecap:butt;stroke-linejoin:miter;stroke-miterlimit:10;stroke-dasharray:none;stroke-opacity:0.9959183"
         id="path86"
         inkscape:connector-curvature="0" /></g><g
       id="g88"
       transform="translate(234.2686,225.248)"
       style="stroke:#7ba9df;stroke-opacity:0.99607843"><path
         d="M 0,0 C 5.94,3.96 11.561,9.707 16.292,15.56"
         style="fill:none;stroke:#7ba9df;stroke-width:4;stroke-linecap:butt;stroke-linejoin:miter;stroke-miterlimit:10;stroke-dasharray:none;stroke-opacity:0.99607843"
         id="path90"
         inkscape:connector-curvature="0" /></g><g
       id="g92"
       transform="translate(327.8262,314.6011)"
       style="stroke:#7ba9df;stroke-opacity:0.9959183"><path
         d="m 0,0 c -11.953,17.931 -28.383,26.105 -41.452,30.139 -1.143,-5.523 -5.452,-9.093 -11.065,-9.981 3.764,-40.372 -6.852,-67.446 -17.393,-83.787 -2.06,-3.192 -4.552,-6.697 -7.356,-10.164"
         style="fill:none;stroke:#7ba9df;stroke-width:4;stroke-linecap:butt;stroke-linejoin:miter;stroke-miterlimit:10;stroke-dasharray:none;stroke-opacity:0.9959183"
         id="path94"
         inkscape:connector-curvature="0" /></g><g
       id="g96"
       transform="translate(295.1221,237.3008)"><path
         d="M 0,0 C -2.185,-0.078 -4.359,0.212 -6.446,0.902"
         style="fill:none;stroke:#7ba9df;stroke-width:4;stroke-linecap:butt;stroke-linejoin:miter;stroke-miterlimit:10;stroke-dasharray:none;stroke-opacity:0.99607843"
         id="path98"
         inkscape:connector-curvature="0" /></g><g
       id="g100"
       transform="translate(288.6758,238.2031)"
       style="stroke:#7ba9df;stroke-opacity:1"><path
         d="M 0,0 C -0.893,0.295 -1.769,0.664 -2.624,1.108 -12.799,6.397 -15.989,20.416 -9.75,32.418 -3.511,44.421 9.796,49.863 19.971,44.574 26.521,41.169 30.178,34.146 30.286,26.372"
         style="fill:none;stroke:#7ba9df;stroke-width:4;stroke-linecap:butt;stroke-linejoin:miter;stroke-miterlimit:10;stroke-dasharray:none;stroke-opacity:1"
         id="path102"
         inkscape:connector-curvature="0" /></g><g
       id="g104"
       transform="translate(268.5254,327.0894)"><path
         d="m 0,0 c -4.305,0.999 -13.46,2.403 -18.252,2.403 -3.718,0 -7.236,-0.313 -10.45,-0.769 0.014,-0.225 0.035,-0.448 0.035,-0.676 0,-5.074 -3.401,-9.346 -8.045,-10.682 8.944,-42.02 0.884,-68.169 -10.422,-88.504"
         style="fill:none;stroke:#7ba9df;stroke-width:4;stroke-linecap:butt;stroke-linejoin:miter;stroke-miterlimit:10;stroke-dasharray:none;stroke-opacity:0.99607843"
         id="path106"
         inkscape:connector-curvature="0" /></g><g
       id="g108"
       transform="translate(226.127,307.812)"><path
         d="m 0,0 c -8.678,-1.095 -17.364,-4.614 -21.742,-6.908 0.529,-0.907 0.837,-1.959 0.837,-3.085 0,-2.028 -0.987,-3.821 -2.502,-4.941 11.49,-17.313 12.678,-37.32 8.093,-58.82"
         style="fill:none;stroke:#7ba9df;stroke-width:4;stroke-linecap:butt;stroke-linejoin:miter;stroke-miterlimit:10;stroke-dasharray:none;stroke-opacity:0.99607843"
         id="path110"
         inkscape:connector-curvature="0" /></g></g></g></g></svg>