<?xml version="1.0" encoding="UTF-8" standalone="no"?>
<!-- Created with Inkscape (http://www.inkscape.org/) -->

<svg
   xmlns:dc="http://purl.org/dc/elements/1.1/"
   xmlns:cc="http://creativecommons.org/ns#"
   xmlns:rdf="http://www.w3.org/1999/02/22-rdf-syntax-ns#"
   xmlns:svg="http://www.w3.org/2000/svg"
   xmlns="http://www.w3.org/2000/svg"
   xmlns:sodipodi="http://sodipodi.sourceforge.net/DTD/sodipodi-0.dtd"
   xmlns:inkscape="http://www.inkscape.org/namespaces/inkscape"
   version="1.1"
   id="svg10"
   xml:space="preserve"
   width="659.0304"
   height="153.30357"
   viewBox="0 0 659.0304 153.30358"
   sodipodi:docname="logo2.svg"
   inkscape:version="0.92.4 (5da689c313, 2019-01-14)"><metadata
     id="metadata16"><rdf:RDF><cc:Work
         rdf:about=""><dc:format>image/svg+xml</dc:format><dc:type
           rdf:resource="http://purl.org/dc/dcmitype/StillImage" /><dc:title></dc:title></cc:Work></rdf:RDF></metadata><defs
     id="defs14"><radialGradient
       fx="0"
       fy="0"
       cx="0"
       cy="0"
       r="1"
       gradientUnits="userSpaceOnUse"
       gradientTransform="matrix(345.5907,0,0,-345.5907,253.67522,250)"
       spreadMethod="pad"
       id="radialGradient36"><stop
         style="stop-opacity:1;stop-color:#ffffff"
         offset="0"
         id="stop32" /><stop
         style="stop-opacity:1;stop-color:#ecf0ef"
         offset="1"
         id="stop34" /></radialGradient><clipPath
       clipPathUnits="userSpaceOnUse"
       id="clipPath54"><path
         d="M 0,500 H 500 V 0 H 0 Z"
         id="path52"
         inkscape:connector-curvature="0" /></clipPath><clipPath
       clipPathUnits="userSpaceOnUse"
       id="clipPath118"><path
         d="M 0,500 H 500 V 0 H 0 Z"
         id="path116"
         inkscape:connector-curvature="0" /></clipPath></defs><sodipodi:namedview
     pagecolor="#ffffff"
     bordercolor="#666666"
     borderopacity="1"
     objecttolerance="10"
     gridtolerance="10"
     guidetolerance="10"
     inkscape:pageopacity="0"
     inkscape:pageshadow="2"
     inkscape:window-width="1680"
     inkscape:window-height="987"
     id="namedview12"
     showgrid="false"
     inkscape:zoom="1.185"
     inkscape:cx="403.47033"
     inkscape:cy="161.15945"
     inkscape:window-x="-8"
     inkscape:window-y="-8"
     inkscape:window-maximized="1"
     inkscape:current-layer="g18" /><g
     id="g18"
     inkscape:groupmode="layer"
     inkscape:label="378717-PCF5DM-658"
     transform="matrix(1.3333333,0,0,-1.3333333,-3.6961599,239.03815)"><g
   aria-label="AKUNTAN"
   transform="matrix(1,0,0,-1,99.5693,172.2119)"
   style="font-variant:normal;font-weight:bold;font-stretch:normal;font-size:55.92459869px;font-family:'Open Sans';-inkscape-font-specification:OpenSans-Bold;writing-mode:lr-tb;fill:#14684e;fill-opacity:1;fill-rule:nonzero;stroke:none"
   id="text42"><path
     d="M -47.424556,48.545805 H -74.84367 l -4.326937,12.388703 H -96.79718 l 25.187325,-68.001225 h 20.905936 l 25.187325,68.001225 h -17.626573 z m -23.04663,-12.616436 h 18.6286 L -61.134113,8.8746292 Z"
     style="fill:#7ba9df;fill-opacity:1;stroke-width:1.66795373"
     id="path146"
     inkscape:connector-curvature="0" /><path
     d="M -16.543895,-7.066717 H 0.99158508 V 17.756236 L 26.270004,-7.066717 H 46.62938 L 13.881303,25.134801 49.999835,60.934508 H 28.046327 L 0.99158508,34.153047 V 60.934508 H -16.543895 Z"
     style="fill:#7ba9df;fill-opacity:1;stroke-width:1.66795373"
     id="path148"
     inkscape:connector-curvature="0" /><path
     d="M 54.144579,-7.066717 H 71.68006 v 40.764298 q 0,8.42614 2.732809,12.069875 2.778344,3.59819 9.018242,3.59819 6.285434,0 9.018242,-3.59819 2.778344,-3.643735 2.778344,-12.069875 V -7.066717 h 17.535473 v 40.764298 q 0,14.438304 -7.24192,21.498043 -7.241915,7.059738 -22.090139,7.059738 -14.802681,0 -22.044607,-7.059738 -7.241925,-7.059739 -7.241925,-21.498043 z"
     style="fill:#7ba9df;fill-opacity:1;stroke-width:1.66795373"
     id="path150"
     inkscape:connector-curvature="0" /><path
     d="m 129.93429,-7.066717 h 19.58508 l 24.73185,46.639821 V -7.066717 h 16.62455 V 60.934508 H 171.29069 L 146.55884,14.294687 v 46.639821 h -16.62455 z"
     style="fill:#7ba9df;fill-opacity:1;stroke-width:1.66795373"
     id="path152"
     inkscape:connector-curvature="0" /><path
     d="m 199.98513,-7.066717 h 62.67226 V 6.1873739 H 240.11176 V 60.934508 H 222.57628 V 6.1873739 h -22.59115 z"
     style="fill:#7ba9df;fill-opacity:1;stroke-width:1.66795373"
     id="path154"
     inkscape:connector-curvature="0" /><path
     d="m 305.65347,48.545805 h -27.41911 l -4.32694,12.388703 h -17.62657 l 25.18732,-68.001225 h 20.90595 l 25.18732,68.001225 H 309.93487 Z M 282.60685,35.929369 h 18.62859 L 291.94392,8.8746292 Z"
     style="fill:#7ba9df;fill-opacity:1;stroke-width:1.66795373"
     id="path156"
     inkscape:connector-curvature="0" /><path
     d="m 336.53413,-7.066717 h 19.5851 l 24.73185,46.639821 V -7.066717 h 16.62454 V 60.934508 H 377.89054 L 353.15868,14.294687 v 46.639821 h -16.62455 z"
     style="fill:#7ba9df;fill-opacity:1;stroke-width:1.66795373"
     id="path158"
     inkscape:connector-curvature="0" /></g>
<g
   aria-label="Smart Accounting System"
   transform="matrix(1.6679537,0,0,-1.6679537,-163.76034,-175.96409)"
   style="font-variant:normal;font-weight:normal;font-stretch:normal;font-size:15px;font-family:'Open Sans';-inkscape-font-specification:OpenSans;writing-mode:lr-tb;fill:#14684e;fill-opacity:1;fill-rule:nonzero;stroke:none"
   id="text46"><path
     d="m 210.62267,-157.74406 v 1.44287 q -0.84229,-0.40284 -1.58936,-0.60059 -0.74707,-0.19775 -1.44287,-0.19775 -1.2085,0 -1.86768,0.46875 -0.65185,0.46875 -0.65185,1.333 0,0.7251 0.43213,1.09864 0.43945,0.36621 1.65527,0.59326 l 0.89355,0.1831 q 1.65528,0.31495 2.43897,1.11329 0.79102,0.79101 0.79102,2.12402 0,1.58935 -1.06934,2.40967 -1.06201,0.82031 -3.12012,0.82031 -0.77637,0 -1.65527,-0.17578 -0.87158,-0.17578 -1.80908,-0.52002 v -1.52344 q 0.90088,0.50537 1.76513,0.76172 0.86426,0.25635 1.69922,0.25635 1.26709,0 1.95557,-0.49805 0.68847,-0.49805 0.68847,-1.4209 0,-0.80566 -0.49804,-1.25976 -0.49072,-0.4541 -1.61865,-0.68116 l -0.90088,-0.17578 q -1.65528,-0.32959 -2.39502,-1.03271 -0.73975,-0.70313 -0.73975,-1.95557 0,-1.45019 1.01807,-2.28515 1.02539,-0.83496 2.81982,-0.83496 0.76904,0 1.56738,0.13916 0.79834,0.13916 1.63331,0.41748 z"
     id="path103"
     inkscape:connector-curvature="0"
     style="fill:#6591d7;fill-opacity:0.85306121" /><path
     d="m 219.9171,-153.79631 q 0.50537,-0.9082 1.2085,-1.34033 0.70312,-0.43213 1.65527,-0.43213 1.28174,0 1.97754,0.90088 0.6958,0.89355 0.6958,2.54883 v 4.95117 h -1.35498 v -4.90723 q 0,-1.1792 -0.41748,-1.75049 -0.41748,-0.57129 -1.27442,-0.57129 -1.04736,0 -1.65527,0.6958 -0.60791,0.69581 -0.60791,1.89698 v 4.63623 h -1.35498 v -4.90723 q 0,-1.18652 -0.41748,-1.75049 -0.41748,-0.57129 -1.28906,-0.57129 -1.03272,0 -1.64063,0.70313 -0.60791,0.6958 -0.60791,1.88965 v 4.63623 h -1.35498 v -8.20313 h 1.35498 v 1.27442 q 0.46143,-0.7544 1.10596,-1.11328 0.64453,-0.35889 1.53076,-0.35889 0.89355,0 1.51611,0.4541 0.62989,0.4541 0.93018,1.31836 z"
     id="path105"
     inkscape:connector-curvature="0"
     style="fill:#6591d7;fill-opacity:0.85306121" /><path
     d="m 231.87755,-151.29143 q -1.6333,0 -2.26319,0.37354 -0.62988,0.37353 -0.62988,1.27441 0,0.71778 0.46875,1.14258 0.47608,0.41748 1.28906,0.41748 1.12061,0 1.79444,-0.79102 0.68115,-0.79834 0.68115,-2.11669 v -0.3003 z m 2.68799,-0.55664 v 4.68018 h -1.34766 v -1.24512 q -0.46143,0.74707 -1.1499,1.10596 -0.68848,0.35156 -1.68457,0.35156 -1.25977,0 -2.00684,-0.70313 -0.73974,-0.71044 -0.73974,-1.89697 0,-1.38428 0.92285,-2.0874 0.93017,-0.70313 2.76855,-0.70313 h 1.88965 v -0.13183 q 0,-0.93018 -0.61523,-1.43555 -0.60791,-0.51269 -1.71387,-0.51269 -0.70313,0 -1.36963,0.16845 -0.6665,0.16846 -1.28174,0.50537 v -1.24511 q 0.73975,-0.28565 1.43555,-0.42481 0.6958,-0.14648 1.35498,-0.14648 1.77978,0 2.65869,0.92285 0.87891,0.92285 0.87891,2.79785 z"
     id="path107"
     inkscape:connector-curvature="0"
     style="fill:#6591d7;fill-opacity:0.85306121" /><path
     d="m 242.10216,-154.11125 q -0.22705,-0.13184 -0.49805,-0.19043 -0.26367,-0.0659 -0.58594,-0.0659 -1.14257,0 -1.75781,0.74707 -0.60791,0.73975 -0.60791,2.13135 v 4.32129 h -1.35498 v -8.20313 h 1.35498 v 1.27442 q 0.42481,-0.74707 1.10596,-1.10596 0.68115,-0.36621 1.65527,-0.36621 0.13916,0 0.30762,0.022 0.16846,0.0146 0.37353,0.0513 z"
     id="path109"
     inkscape:connector-curvature="0"
     style="fill:#6591d7;fill-opacity:0.85306121" /><path
     d="m 244.86339,-157.70012 v 2.3291 h 2.77588 v 1.04737 h -2.77588 v 4.45312 q 0,1.00342 0.27099,1.28906 0.27832,0.28565 1.12061,0.28565 h 1.38428 v 1.12793 h -1.38428 q -1.56006,0 -2.15332,-0.57862 -0.59326,-0.58593 -0.59326,-2.12402 v -4.45312 h -0.98877 v -1.04737 h 0.98877 v -2.3291 z"
     id="path111"
     inkscape:connector-curvature="0"
     style="fill:#6591d7;fill-opacity:0.85306121" /><path
     d="m 257.90782,-156.64543 -2.00683,5.44189 h 4.02099 z m -0.83496,-1.45752 h 1.67725 l 4.16748,10.93506 h -1.53809 l -0.99609,-2.80518 h -4.9292 l -0.9961,2.80518 h -1.56005 z"
     id="path113"
     inkscape:connector-curvature="0"
     style="fill:#6591d7;fill-opacity:0.85306121" /><path
     d="m 270.088,-155.05608 v 1.25977 q -0.57129,-0.31494 -1.1499,-0.46875 -0.57129,-0.16113 -1.15723,-0.16113 -1.31104,0 -2.03613,0.83496 -0.7251,0.82763 -0.7251,2.3291 0,1.50146 0.7251,2.33643 0.72509,0.82763 2.03613,0.82763 0.58594,0 1.15723,-0.15381 0.57861,-0.16113 1.1499,-0.47607 v 1.24512 q -0.56397,0.26367 -1.17188,0.3955 -0.60058,0.13184 -1.28174,0.13184 -1.85302,0 -2.94433,-1.16455 -1.09131,-1.16455 -1.09131,-3.14209 0,-2.00684 1.09863,-3.15674 1.10596,-1.1499 3.0249,-1.1499 0.62256,0 1.21583,0.13183 0.59326,0.12452 1.1499,0.38086 z"
     id="path115"
     inkscape:connector-curvature="0"
     style="fill:#6591d7;fill-opacity:0.85306121" /><path
     d="m 278.34972,-155.05608 v 1.25977 q -0.57129,-0.31494 -1.14991,-0.46875 -0.57129,-0.16113 -1.15722,-0.16113 -1.31104,0 -2.03614,0.83496 -0.72509,0.82763 -0.72509,2.3291 0,1.50146 0.72509,2.33643 0.7251,0.82763 2.03614,0.82763 0.58593,0 1.15722,-0.15381 0.57862,-0.16113 1.14991,-0.47607 v 1.24512 q -0.56397,0.26367 -1.17188,0.3955 -0.60058,0.13184 -1.28174,0.13184 -1.85302,0 -2.94433,-1.16455 -1.09131,-1.16455 -1.09131,-3.14209 0,-2.00684 1.09863,-3.15674 1.10596,-1.1499 3.0249,-1.1499 0.62256,0 1.21582,0.13183 0.59327,0.12452 1.14991,0.38086 z"
     id="path117"
     inkscape:connector-curvature="0"
     style="fill:#6591d7;fill-opacity:0.85306121" /><path
     d="m 283.88683,-154.42619 q -1.08399,0 -1.71387,0.84961 -0.62988,0.84228 -0.62988,2.31445 0,1.47217 0.62255,2.32178 0.62989,0.84228 1.7212,0.84228 1.07666,0 1.70654,-0.84961 0.62988,-0.84961 0.62988,-2.31445 0,-1.45752 -0.62988,-2.30713 -0.62988,-0.85693 -1.70654,-0.85693 z m 0,-1.14258 q 1.75781,0 2.76123,1.14258 1.00341,1.14257 1.00341,3.16406 0,2.01416 -1.00341,3.16406 -1.00342,1.14258 -2.76123,1.14258 -1.76514,0 -2.76856,-1.14258 -0.99609,-1.1499 -0.99609,-3.16406 0,-2.02149 0.99609,-3.16406 1.00342,-1.14258 2.76856,-1.14258 z"
     id="path119"
     inkscape:connector-curvature="0"
     style="fill:#6591d7;fill-opacity:0.85306121" /><path
     d="m 289.73888,-150.4052 v -4.96582 h 1.34765 v 4.91455 q 0,1.16455 0.4541,1.75049 0.45411,0.57861 1.36231,0.57861 1.09131,0 1.72119,-0.6958 0.63721,-0.6958 0.63721,-1.89697 v -4.65088 h 1.34765 v 8.20313 h -1.34765 v -1.25977 q -0.49073,0.74707 -1.14258,1.11328 -0.64453,0.35889 -1.50147,0.35889 -1.41357,0 -2.14599,-0.87891 -0.73242,-0.8789 -0.73242,-2.5708 z m 3.39111,-5.16357 z"
     id="path121"
     inkscape:connector-curvature="0"
     style="fill:#6591d7;fill-opacity:0.85306121" /><path
     d="m 306.21837,-152.11906 v 4.95117 h -1.34766 v -4.90723 q 0,-1.16455 -0.4541,-1.74316 -0.4541,-0.57862 -1.3623,-0.57862 -1.09131,0 -1.7212,0.6958 -0.62988,0.69581 -0.62988,1.89698 v 4.63623 h -1.35498 v -8.20313 h 1.35498 v 1.27442 q 0.4834,-0.73975 1.13526,-1.10596 0.65918,-0.36621 1.51611,-0.36621 1.41357,0 2.13867,0.8789 0.7251,0.87159 0.7251,2.57081 z"
     id="path123"
     inkscape:connector-curvature="0"
     style="fill:#6591d7;fill-opacity:0.85306121" /><path
     d="m 310.25401,-157.70012 v 2.3291 h 2.77588 v 1.04737 h -2.77588 v 4.45312 q 0,1.00342 0.271,1.28906 0.27832,0.28565 1.1206,0.28565 h 1.38428 v 1.12793 h -1.38428 q -1.56005,0 -2.15332,-0.57862 -0.59326,-0.58593 -0.59326,-2.12402 v -4.45312 h -0.98877 v -1.04737 h 0.98877 v -2.3291 z"
     id="path125"
     inkscape:connector-curvature="0"
     style="fill:#6591d7;fill-opacity:0.85306121" /><path
     d="m 314.80968,-155.37102 h 1.34765 v 8.20313 h -1.34765 z m 0,-3.19336 h 1.34765 v 1.70655 h -1.34765 z"
     id="path127"
     inkscape:connector-curvature="0"
     style="fill:#6591d7;fill-opacity:0.85306121" /><path
     d="m 325.78868,-152.11906 v 4.95117 h -1.34766 v -4.90723 q 0,-1.16455 -0.4541,-1.74316 -0.4541,-0.57862 -1.3623,-0.57862 -1.09131,0 -1.72119,0.6958 -0.62989,0.69581 -0.62989,1.89698 v 4.63623 h -1.35498 v -8.20313 h 1.35498 v 1.27442 q 0.4834,-0.73975 1.13526,-1.10596 0.65918,-0.36621 1.51611,-0.36621 1.41358,0 2.13867,0.8789 0.7251,0.87159 0.7251,2.57081 z"
     id="path129"
     inkscape:connector-curvature="0"
     style="fill:#6591d7;fill-opacity:0.85306121" /><path
     d="m 333.88927,-151.36467 q 0,-1.46484 -0.60791,-2.27051 -0.60059,-0.80566 -1.6919,-0.80566 -1.08398,0 -1.69189,0.80566 -0.60059,0.80567 -0.60059,2.27051 0,1.45752 0.60059,2.26318 0.60791,0.80567 1.69189,0.80567 1.09131,0 1.6919,-0.80567 0.60791,-0.80566 0.60791,-2.26318 z m 1.34765,3.17871 q 0,2.09473 -0.93017,3.11279 -0.93018,1.02539 -2.84912,1.02539 -0.71045,0 -1.34034,-0.10986 -0.62988,-0.10254 -1.22314,-0.32226 v -1.31104 q 0.59326,0.32227 1.17187,0.47607 0.57862,0.15381 1.1792,0.15381 1.32569,0 1.98487,-0.6958 0.65918,-0.68847 0.65918,-2.0874 v -0.6665 q -0.41748,0.72509 -1.06934,1.08398 -0.65185,0.35889 -1.56006,0.35889 -1.50879,0 -2.43164,-1.1499 -0.92285,-1.14991 -0.92285,-3.04688 0,-1.9043 0.92285,-3.0542 0.92285,-1.1499 2.43164,-1.1499 0.90821,0 1.56006,0.35889 0.65186,0.35888 1.06934,1.08398 v -1.24512 h 1.34765 z"
     id="path131"
     inkscape:connector-curvature="0"
     style="fill:#6591d7;fill-opacity:0.85306121" /><path
     d="m 349.40196,-157.74406 v 1.44287 q -0.84228,-0.40284 -1.58935,-0.60059 -0.74707,-0.19775 -1.44287,-0.19775 -1.2085,0 -1.86768,0.46875 -0.65186,0.46875 -0.65186,1.333 0,0.7251 0.43213,1.09864 0.43946,0.36621 1.65528,0.59326 l 0.89355,0.1831 q 1.65527,0.31495 2.43897,1.11329 0.79101,0.79101 0.79101,2.12402 0,1.58935 -1.06933,2.40967 -1.06202,0.82031 -3.12012,0.82031 -0.77637,0 -1.65527,-0.17578 -0.87159,-0.17578 -1.80909,-0.52002 v -1.52344 q 0.90088,0.50537 1.76514,0.76172 0.86426,0.25635 1.69922,0.25635 1.26709,0 1.95557,-0.49805 0.68847,-0.49805 0.68847,-1.4209 0,-0.80566 -0.49805,-1.25976 -0.49072,-0.4541 -1.61865,-0.68116 l -0.90088,-0.17578 q -1.65527,-0.32959 -2.39502,-1.03271 -0.73974,-0.70313 -0.73974,-1.95557 0,-1.45019 1.01806,-2.28515 1.0254,-0.83496 2.81983,-0.83496 0.76904,0 1.56738,0.13916 0.79834,0.13916 1.6333,0.41748 z"
     id="path133"
     inkscape:connector-curvature="0"
     style="fill:#6591d7;fill-opacity:1" /><path
     d="m 355.72276,-146.40617 q -0.57129,1.46484 -1.11328,1.91162 -0.54199,0.44677 -1.45019,0.44677 h -1.07666 v -1.12792 h 0.79101 q 0.55664,0 0.86426,-0.26368 0.30762,-0.26367 0.68115,-1.24511 l 0.2417,-0.61524 -3.31787,-8.07129 h 1.42822 l 2.56348,6.41602 2.56348,-6.41602 h 1.42822 z"
     id="path135"
     inkscape:connector-curvature="0"
     style="fill:#6591d7;fill-opacity:0.85306121" /><path
     d="m 366.41612,-155.12932 v 1.27442 q -0.57129,-0.29297 -1.18652,-0.43946 -0.61524,-0.14648 -1.27442,-0.14648 -1.00341,0 -1.50878,0.30762 -0.49805,0.30761 -0.49805,0.92285 0,0.46875 0.35889,0.73974 0.35888,0.26368 1.44287,0.50537 l 0.46142,0.10254 q 1.43555,0.30762 2.03614,0.87159 0.60791,0.55664 0.60791,1.56005 0,1.14258 -0.90821,1.80909 -0.90088,0.6665 -2.48291,0.6665 -0.65918,0 -1.37695,-0.13184 -0.71045,-0.12451 -1.50147,-0.38086 v -1.3916 q 0.74707,0.38819 1.47217,0.58594 0.7251,0.19043 1.43555,0.19043 0.95215,0 1.46484,-0.32227 0.5127,-0.32959 0.5127,-0.92285 0,-0.54931 -0.37354,-0.84228 -0.36621,-0.29297 -1.61865,-0.56397 l -0.46875,-0.10986 q -1.25244,-0.26367 -1.80908,-0.80566 -0.55664,-0.54932 -0.55664,-1.50147 0,-1.15723 0.82031,-1.78711 0.82031,-0.62988 2.3291,-0.62988 0.74707,0 1.40625,0.10986 0.65918,0.10987 1.21582,0.32959 z"
     id="path137"
     inkscape:connector-curvature="0"
     style="fill:#6591d7;fill-opacity:0.85306121" /><path
     d="m 370.3419,-157.70012 v 2.3291 h 2.77588 v 1.04737 h -2.77588 v 4.45312 q 0,1.00342 0.271,1.28906 0.27832,0.28565 1.12061,0.28565 h 1.38427 v 1.12793 h -1.38427 q -1.56006,0 -2.15333,-0.57862 -0.59326,-0.58593 -0.59326,-2.12402 v -4.45312 h -0.98877 v -1.04737 h 0.98877 v -2.3291 z"
     id="path139"
     inkscape:connector-curvature="0"
     style="fill:#6591d7;fill-opacity:0.85306121" /><path
     d="m 381.91417,-151.60637 v 0.65918 h -6.19629 q 0.0879,1.3916 0.83496,2.12402 0.7544,0.7251 2.09473,0.7251 0.77636,0 1.50146,-0.19043 0.73242,-0.19043 1.4502,-0.57129 v 1.27442 q -0.7251,0.30761 -1.48682,0.46875 -0.76172,0.16113 -1.54541,0.16113 -1.96289,0 -3.11279,-1.14258 -1.14258,-1.14258 -1.14258,-3.09082 0,-2.01416 1.08398,-3.19336 1.09131,-1.18652 2.93702,-1.18652 1.65527,0 2.61474,1.06933 0.9668,1.06202 0.9668,2.89307 z m -1.34766,-0.39551 q -0.0147,-1.10595 -0.62256,-1.76513 -0.60058,-0.65918 -1.59668,-0.65918 -1.12792,0 -1.80908,0.6372 -0.67383,0.63721 -0.77636,1.79444 z"
     id="path141"
     inkscape:connector-curvature="0"
     style="fill:#6591d7;fill-opacity:0.85306121" /><path
     d="m 390.5128,-153.79631 q 0.50537,-0.9082 1.2085,-1.34033 0.70312,-0.43213 1.65527,-0.43213 1.28174,0 1.97754,0.90088 0.6958,0.89355 0.6958,2.54883 v 4.95117 h -1.35498 v -4.90723 q 0,-1.1792 -0.41748,-1.75049 -0.41748,-0.57129 -1.27441,-0.57129 -1.04737,0 -1.65528,0.6958 -0.60791,0.69581 -0.60791,1.89698 v 4.63623 h -1.35498 v -4.90723 q 0,-1.18652 -0.41748,-1.75049 -0.41748,-0.57129 -1.28906,-0.57129 -1.03272,0 -1.64063,0.70313 -0.60791,0.6958 -0.60791,1.88965 v 4.63623 h -1.35498 v -8.20313 h 1.35498 v 1.27442 q 0.46143,-0.7544 1.10596,-1.11328 0.64453,-0.35889 1.53076,-0.35889 0.89356,0 1.51612,0.4541 0.62988,0.4541 0.93017,1.31836 z"
     id="path143"
     inkscape:connector-curvature="0"
     style="fill:#6591d7;fill-opacity:0.85306121" /></g>
<g
   id="g48"
   transform="matrix(1.6679537,0,0,1.6679537,-163.76034,-175.96409)"><g
     id="g50"
     clip-path="url(#clipPath54)"><g
       id="g56"
       transform="translate(328.8779,301.9863)"
       style="fill:#4871c8;fill-opacity:1"><path
         d="m 0,0 c 0,43.543 -35.299,78.841 -78.841,78.841 -43.543,0 -78.842,-35.298 -78.842,-78.841 0,-43.543 35.299,-78.841 78.842,-78.841 C -35.299,-78.841 0,-43.543 0,0"
         style="fill:#4871c8;fill-opacity:1;fill-rule:nonzero;stroke:none"
         id="path58"
         inkscape:connector-curvature="0" /></g><g
       id="g60"
       transform="translate(214.5776,231.5547)"
       style="fill:#a6c6ea;fill-opacity:1"><path
         d="M 0,0 C 27.614,49.407 10.23,83.046 10.23,83.046 -10.491,81.565 -26.562,67.278 -26.562,67.278 -0.282,43.1 -10.13,6.101 -10.13,6.101 -10.13,6.101 -2.871,1.052 0,0"
         style="fill:#a6c6ea;fill-opacity:1;fill-rule:nonzero;stroke:none"
         id="path62"
         inkscape:connector-curvature="0" /></g><g
       id="g64"
       transform="translate(214.5776,231.5547)"><path
         d="M 0,0 C 27.614,49.407 10.23,83.046 10.23,83.046 -10.491,81.565 -26.562,67.278 -26.562,67.278 -0.282,43.1 -10.13,6.101 -10.13,6.101 -10.13,6.101 -2.871,1.052 0,0 Z"
         style="fill:none;stroke:#7ba9df;stroke-width:4;stroke-linecap:butt;stroke-linejoin:miter;stroke-miterlimit:10;stroke-dasharray:none;stroke-opacity:0.99607843"
         id="path66"
         inkscape:connector-curvature="0" /></g><g
       id="g68"
       transform="translate(268.876,334.3062)"
       style="fill:#cadcf3;fill-opacity:1"><path
         d="m 0,0 c -24.26,7.091 -48.273,-2.886 -48.273,-2.886 19.973,-66.226 -6.025,-99.865 -6.025,-99.865 0,0 15.485,-8.41 38.612,-8.41 0,0 34.526,81.459 15.686,111.161"
         style="fill:#cadcf3;fill-opacity:1;fill-rule:nonzero;stroke:none"
         id="path70"
         inkscape:connector-curvature="0" /></g><g
       id="g72"
       transform="translate(268.876,334.3062)"><path
         d="m 0,0 c -24.26,7.091 -48.273,-2.886 -48.273,-2.886 19.973,-66.226 -6.025,-99.865 -6.025,-99.865 0,0 15.485,-8.41 38.612,-8.41 0,0 34.526,81.459 15.686,111.161 z"
         style="fill:none;stroke:#7ba9df;stroke-width:4;stroke-linecap:butt;stroke-linejoin:miter;stroke-miterlimit:10;stroke-dasharray:none;stroke-opacity:0.99607843"
         id="path74"
         inkscape:connector-curvature="0" /></g><g
       id="g76"
       transform="translate(323.457,330.769)"
       style="fill:#e1ebf8;fill-opacity:1"><path
         d="m 0,0 c -21.911,27.983 -58.703,24.83 -58.703,24.83 19.973,-97.764 -41.024,-127.953 -41.024,-127.953 0,0 36.819,-13.961 68.568,7.774 0,0 53.399,33.979 31.159,95.349"
         style="fill:#e1ebf8;fill-opacity:1;fill-rule:nonzero;stroke:none"
         id="path78"
         inkscape:connector-curvature="0" /></g><g
       id="g80"
       transform="translate(323.457,330.769)"><path
         d="m 0,0 c -21.911,27.983 -58.703,24.83 -58.703,24.83 19.973,-97.764 -41.024,-127.953 -41.024,-127.953 0,0 36.819,-13.961 68.568,7.774 0,0 53.399,33.979 31.159,95.349 z"
         style="fill:none;stroke:#7ba9df;stroke-width:4;stroke-linecap:butt;stroke-linejoin:miter;stroke-miterlimit:10;stroke-dasharray:none;stroke-opacity:0.99607843"
         id="path82"
         inkscape:connector-curvature="0" /></g><g
       id="g84"
       transform="translate(328.8779,301.9863)"
       style="fill:#7ba9df;fill-opacity:0;stroke:#7ba9df;stroke-opacity:0.9959183"><path
         d="m 0,0 c 0,43.543 -35.299,78.841 -78.841,78.841 -43.543,0 -78.842,-35.298 -78.842,-78.841 0,-43.543 35.299,-78.841 78.842,-78.841 C -35.299,-78.841 0,-43.543 0,0 Z"
         style="fill:#7ba9df;fill-opacity:0;stroke:#7ba9df;stroke-width:4;stroke-linecap:butt;stroke-linejoin:miter;stroke-miterlimit:10;stroke-dasharray:none;stroke-opacity:0.9959183"
         id="path86"
         inkscape:connector-curvature="0" /></g><g
       id="g88"
       transform="translate(234.2686,225.248)"
       style="stroke:#7ba9df;stroke-opacity:0.99607843"><path
         d="M 0,0 C 5.94,3.96 11.561,9.707 16.292,15.56"
         style="fill:none;stroke:#7ba9df;stroke-width:4;stroke-linecap:butt;stroke-linejoin:miter;stroke-miterlimit:10;stroke-dasharray:none;stroke-opacity:0.99607843"
         id="path90"
         inkscape:connector-curvature="0" /></g><g
       id="g92"
       transform="translate(327.8262,314.6011)"
       style="stroke:#7ba9df;stroke-opacity:0.9959183"><path
         d="m 0,0 c -11.953,17.931 -28.383,26.105 -41.452,30.139 -1.143,-5.523 -5.452,-9.093 -11.065,-9.981 3.764,-40.372 -6.852,-67.446 -17.393,-83.787 -2.06,-3.192 -4.552,-6.697 -7.356,-10.164"
         style="fill:none;stroke:#7ba9df;stroke-width:4;stroke-linecap:butt;stroke-linejoin:miter;stroke-miterlimit:10;stroke-dasharray:none;stroke-opacity:0.9959183"
         id="path94"
         inkscape:connector-curvature="0" /></g><g
       id="g96"
       transform="translate(295.1221,237.3008)"><path
         d="M 0,0 C -2.185,-0.078 -4.359,0.212 -6.446,0.902"
         style="fill:none;stroke:#7ba9df;stroke-width:4;stroke-linecap:butt;stroke-linejoin:miter;stroke-miterlimit:10;stroke-dasharray:none;stroke-opacity:0.99607843"
         id="path98"
         inkscape:connector-curvature="0" /></g><g
       id="g100"
       transform="translate(288.6758,238.2031)"
       style="stroke:#7ba9df;stroke-opacity:1"><path
         d="M 0,0 C -0.893,0.295 -1.769,0.664 -2.624,1.108 -12.799,6.397 -15.989,20.416 -9.75,32.418 -3.511,44.421 9.796,49.863 19.971,44.574 26.521,41.169 30.178,34.146 30.286,26.372"
         style="fill:none;stroke:#7ba9df;stroke-width:4;stroke-linecap:butt;stroke-linejoin:miter;stroke-miterlimit:10;stroke-dasharray:none;stroke-opacity:1"
         id="path102"
         inkscape:connector-curvature="0" /></g><g
       id="g104"
       transform="translate(268.5254,327.0894)"><path
         d="m 0,0 c -4.305,0.999 -13.46,2.403 -18.252,2.403 -3.718,0 -7.236,-0.313 -10.45,-0.769 0.014,-0.225 0.035,-0.448 0.035,-0.676 0,-5.074 -3.401,-9.346 -8.045,-10.682 8.944,-42.02 0.884,-68.169 -10.422,-88.504"
         style="fill:none;stroke:#7ba9df;stroke-width:4;stroke-linecap:butt;stroke-linejoin:miter;stroke-miterlimit:10;stroke-dasharray:none;stroke-opacity:0.99607843"
         id="path106"
         inkscape:connector-curvature="0" /></g><g
       id="g108"
       transform="translate(226.127,307.812)"><path
         d="m 0,0 c -8.678,-1.095 -17.364,-4.614 -21.742,-6.908 0.529,-0.907 0.837,-1.959 0.837,-3.085 0,-2.028 -0.987,-3.821 -2.502,-4.941 11.49,-17.313 12.678,-37.32 8.093,-58.82"
         style="fill:none;stroke:#7ba9df;stroke-width:4;stroke-linecap:butt;stroke-linejoin:miter;stroke-miterlimit:10;stroke-dasharray:none;stroke-opacity:0.99607843"
         id="path110"
         inkscape:connector-curvature="0" /></g></g></g></g></svg>